<?xml version="1.0" encoding="UTF-8" standalone="no"?>
<svg width="300px" height="300px" viewBox="0 0 300 300" version="1.1" xmlns="http://www.w3.org/2000/svg" xmlns:xlink="http://www.w3.org/1999/xlink">
    <!-- Generator: Sketch 44.1 (41455) - http://www.bohemiancoding.com/sketch -->
    <title>like copy</title>
    <desc>Created with Sketch.</desc>
    <defs>
        <polygon id="path-1" points="0.0119817708 73.2 0.0119817708 0.157738043 102.244245 0.157738043 102.244245 73.2"></polygon>
    </defs>
    <g id="App" stroke="none" stroke-width="1" fill="none" fill-rule="evenodd">
        <g id="like-copy">
            <circle id="Oval-1" fill="#F5F5F5" cx="150" cy="150" r="150"></circle>
            <path d="M241.363636,268.974539 L241.363636,86.8156065 C241.363636,75.7713338 232.411108,66.8181818 221.373423,66.8181818 L211.363636,66.8181818 L211.363636,66.0900491 C211.363636,64.9859546 210.465796,64.0909091 209.372019,64.0909091 L183.355253,64.0909091 C182.255314,64.0909091 181.363636,64.993352 181.363636,66.0900491 L181.363636,66.8181818 L78.626577,66.8181818 C67.586287,66.8181818 58.6363636,75.7634018 58.6363636,86.8156065 L58.6363636,121.363636 L57.9007079,121.363636 C56.8007682,121.363636 55.9090909,122.258825 55.9090909,123.370615 L55.9090909,138.447567 C55.9090909,139.55599 56.8069313,140.454545 57.9007079,140.454545 L58.6363636,140.454545 L58.6363636,158.181818 L57.9007079,158.181818 C56.8007682,158.181818 55.9090909,159.076538 55.9090909,160.179266 L55.9090909,169.820734 C55.9090909,170.923894 56.8069313,171.818182 57.9007079,171.818182 L58.6363636,171.818182 L58.6363636,189.545455 L57.9007079,189.545455 C56.8007682,189.545455 55.9090909,190.440174 55.9090909,191.542903 L55.9090909,201.18437 C55.9090909,202.28753 56.8069313,203.181818 57.9007079,203.181818 L58.6363636,203.181818 L58.6363636,268.974539 C83.9356308,288.431523 115.616833,300 150,300 C184.383167,300 216.064369,288.431523 241.363636,268.974539 Z" id="iphone" fill="#565656"></path>
            <path d="M150,92.7272727 C147.740653,92.7272727 145.909091,90.8957105 145.909091,88.6363636 C145.909091,86.3770168 147.740653,84.5454545 150,84.5454545 C152.259347,84.5454545 154.090909,86.3770168 154.090909,88.6363636 C154.090909,90.8957105 152.259347,92.7272727 150,92.7272727 Z M135.634336,100.909091 L164.365664,100.909091 C165.471288,100.909091 166.363636,101.804566 166.363636,102.90919 L166.363636,104.363537 C166.363636,105.462929 165.469114,106.363636 164.365664,106.363636 L135.634336,106.363636 C134.528712,106.363636 133.636364,105.468162 133.636364,104.363537 L133.636364,102.90919 C133.636364,101.809798 134.530886,100.909091 135.634336,100.909091 Z" id="speaker" fill="#ABA99F"></path>
            <path d="M229.090909,277.47852 L229.090909,122.357357 C229.090909,121.80854 228.63714,121.363636 228.091118,121.363636 L71.9088822,121.363636 C71.3567127,121.363636 70.9090909,121.820083 70.9090909,122.357357 L70.9090909,277.47852 C93.8707418,291.75474 120.972478,300 150,300 C179.027522,300 206.129258,291.75474 229.090909,277.47852 Z" id="screen" fill="#3E5167"></path>
            <g id="bell" transform="translate(99.600000, 170.400000)">
                <path d="M51.1228213,46.8688859 C55.8306588,46.8688859 59.6472522,50.670313 59.6472522,55.359887 C59.6472522,60.049262 55.8306588,63.850888 51.1228213,63.850888 C46.4149839,63.850888 42.5983905,60.049262 42.5983905,55.359887 C42.5983905,50.670313 46.4149839,46.8688859 51.1228213,46.8688859" id="Fill-1" fill="#F8C356"></path>
                <path d="M80.0552033,67.1966054 C79.6188672,67.1966054 79.1827307,67.0309109 78.8498372,66.6991239 C78.1838504,66.0357489 78.1838504,64.9612207 78.8498372,64.2978457 C91.8276926,51.3698902 94.033936,30.8579772 84.0958559,15.5245663 C83.5848333,14.7368707 83.8110891,13.6854163 84.6036832,13.1761989 C85.3896874,12.6687717 86.4484766,12.8927478 86.9596988,13.6820348 C97.7632622,30.35055 95.3675071,52.6475087 81.2607692,66.6993228 C80.927676,67.0309109 80.4913398,67.1966054 80.0552033,67.1966054" id="Fill-2" fill="#FEF182"></path>
                <g id="Group-7">
                    <mask id="mask-2" fill="white">
                        <use xlink:href="#path-1"></use>
                    </mask>
                    <g id="Clip-4"></g>
                    <path d="M81.8115313,11.4184043 C81.340448,11.4184043 80.8709622,11.2252598 80.5346739,10.8455348 C79.9952945,10.2376565 79.432351,9.64151413 78.8480399,9.05949457 C78.1838504,8.39611957 78.1838504,7.32059674 78.8498372,6.6582163 C79.515824,5.99643261 80.5961803,5.9948413 81.2621671,6.65980761 C81.893207,7.29016304 82.50248,7.9360337 83.0885883,8.59523152 C83.7128386,9.29759348 83.6461401,10.3703315 82.9418116,10.9923326 C82.6173053,11.2781707 82.2145181,11.4184043 81.8115313,11.4184043" id="Fill-3" fill="#FEF182" mask="url(#mask-2)"></path>
                    <path d="M16.1622107,73.2 C15.7258745,73.2 15.2897381,73.0343054 14.9568445,72.7025185 C-4.98561484,52.839062 -4.98561484,20.5186761 14.9568445,0.655219565 C15.6228313,-0.00815543478 16.7015901,-0.00815543478 17.3675768,0.655219565 C18.0335636,1.31859457 18.0335636,2.39312283 17.3675768,3.05649783 C-1.24470629,21.5955913 -1.24470629,51.7617489 17.3675768,70.3010413 C18.0335636,70.9644163 18.0335636,72.0391435 17.3675768,72.7021207 C17.0346833,73.0343054 16.5983471,73.2 16.1622107,73.2" id="Fill-5" fill="#FFF8BD" mask="url(#mask-2)"></path>
                    <path d="M86.0820341,73.2 C85.6458976,73.2 85.2095615,73.0343054 84.8766679,72.7025185 C84.2106812,72.0391435 84.2106812,70.9646152 84.8766679,70.3012402 C103.488951,51.7619478 103.488951,21.5959891 84.8766679,3.05669674 C84.2106812,2.39332174 84.2106812,1.31879348 84.8766679,0.655418478 C85.5426547,-0.00795652174 86.6216132,-0.00795652174 87.2874002,0.655418478 C107.22986,20.518875 107.22986,52.8392609 87.2874002,72.7027174 C86.9545067,73.0343054 86.5183702,73.2 86.0820341,73.2" id="Fill-6" fill="#FFF8BD" mask="url(#mask-2)"></path>
                </g>
                <path d="M16.7181648,60.4526576 C16.1588158,60.4526576 15.6110492,60.1791522 15.284546,59.6757033 C4.4809826,43.007387 6.87673767,20.7102293 20.9836753,6.65881304 C21.649662,5.99543804 22.7284208,5.99543804 23.3944076,6.65881304 C24.0603943,7.32218804 24.0603943,8.3967163 23.3944076,9.0600913 C10.4165522,21.9882457 8.21030877,42.4997609 18.1483889,57.8333707 C18.6594114,58.6212652 18.4329559,59.6725207 17.6405615,60.1815391 C17.3557947,60.364738 17.0346833,60.4526576 16.7181648,60.4526576" id="Fill-8" fill="#FEF182"></path>
                <path d="M22.1890414,67.1966054 C21.7529049,67.1966054 21.3149712,67.0309109 20.9820777,66.6983283 C20.3510378,66.0679728 19.7417647,65.4221022 19.1556564,64.7629043 C18.5314062,64.0605424 18.5981047,62.9876054 19.3024331,62.3658033 C20.0067615,61.7445978 21.0871179,61.8076533 21.7097706,62.5124022 C22.24915,63.1200815 22.8120935,63.7164228 23.3964045,64.2984424 C24.060594,64.9618174 24.060594,66.0371413 23.3946072,66.6997207 C23.061514,67.0309109 22.6253776,67.1966054 22.1890414,67.1966054" id="Fill-9" fill="#FEF182"></path>
                <path d="M69.8756905,41.6846152 L69.8756905,29.886287 C69.8756905,19.569463 61.4794646,11.2061641 51.1220225,11.2061641 C40.7645804,11.2061641 32.3683545,19.569463 32.3683545,29.886287 L32.3683545,41.6846152 C32.3683545,42.8414935 31.9729561,43.9639598 31.2476595,44.8672239 L26.1020881,51.274213 C25.7440328,51.7199772 25.5487299,52.27395 25.5487299,52.8450293 C25.5487299,54.2336413 26.6790103,55.3594891 28.0730894,55.3594891 L74.1709557,55.3594891 C75.5650347,55.3594891 76.6951154,54.2336413 76.6951154,52.8450293 C76.6951154,52.27395 76.5002119,51.7201761 76.141957,51.274213 L70.9963855,44.8672239 C70.271089,43.9639598 69.8756905,42.8412946 69.8756905,41.6846152" id="Fill-10" fill="#FCD966"></path>
                <path d="M54.5286397,20.61495 C54.3271462,20.61495 54.1206604,20.5859087 53.9193666,20.5254391 C53.3348559,20.3527826 52.7321728,20.2334348 52.1244974,20.1721696 C50.954078,20.0526228 50.101575,19.011313 50.2213928,17.844688 C50.3414102,16.6770685 51.406989,15.8231348 52.557239,15.9480522 C53.4297116,16.0367674 54.2971918,16.2078326 55.1347176,16.4572696 C56.2636001,16.7912446 56.9062224,17.9737826 56.5697343,19.0974424 C56.2933548,20.0188076 55.4460439,20.61495 54.5286397,20.61495 Z M63.0562657,35.7235891 C61.8792564,35.7235891 60.925108,34.7731826 60.925108,33.6007891 L60.925108,29.886088 C60.925108,27.5892391 60.1059543,25.357037 58.617419,23.600038 C57.8581741,22.703537 57.9716015,21.3644543 58.8722313,20.608187 C59.7712635,19.8527152 61.116417,19.9670902 61.8740643,20.8618011 C64.0100146,23.3842174 65.1872236,26.5883087 65.1872236,29.886088 L65.1872236,33.6007891 C65.1872236,34.7733815 64.2334747,35.7235891 63.0562657,35.7235891 L63.0562657,35.7235891 Z" id="Fill-11" fill="#FEF182"></path>
                <path d="M32.3685542,29.886287 L32.3685542,41.6846152 C32.3685542,42.8414935 31.9731558,43.9639598 31.2478592,44.8672239 L26.1022878,51.274213 C25.7442325,51.7199772 25.5489296,52.27395 25.5489296,52.8448304 C25.5489296,54.2334424 26.67921,55.3590913 28.0732891,55.3590913 L37.2928623,55.3590913 C36.456335,55.3590913 35.7783665,54.2334424 35.7783665,52.8448304 C35.7783665,52.27395 35.8953885,51.7199772 36.1100618,51.274213 L39.1973648,44.8672239 C39.6327025,43.9641587 39.8699415,42.8414935 39.8699415,41.6846152 L39.8699415,29.886287 C39.8699415,19.569463 44.9076771,11.2061641 51.1222222,11.2061641 C40.7645804,11.2061641 32.3685542,19.5692641 32.3685542,29.886287" id="Fill-12" fill="#F8C356"></path>
            </g>
        </g>
    </g>
</svg>