<?xml version="1.0" encoding="UTF-8" standalone="no"?>
<svg width="300px" height="300px" viewBox="0 0 300 300" version="1.1" xmlns="http://www.w3.org/2000/svg" xmlns:xlink="http://www.w3.org/1999/xlink">
    <!-- Generator: Sketch 44.1 (41455) - http://www.bohemiancoding.com/sketch -->
    <title>like copy</title>
    <desc>Created with Sketch.</desc>
    <defs></defs>
    <g id="App" stroke="none" stroke-width="1" fill="none" fill-rule="evenodd">
        <g id="like-copy">
            <circle id="Oval-1" fill="#F5F5F5" cx="150" cy="150" r="150"></circle>
            <path d="M241.363636,268.974539 L241.363636,86.8156065 C241.363636,75.7713338 232.411108,66.8181818 221.373423,66.8181818 L211.363636,66.8181818 L211.363636,66.0900491 C211.363636,64.9859546 210.465796,64.0909091 209.372019,64.0909091 L183.355253,64.0909091 C182.255314,64.0909091 181.363636,64.993352 181.363636,66.0900491 L181.363636,66.8181818 L78.626577,66.8181818 C67.586287,66.8181818 58.6363636,75.7634018 58.6363636,86.8156065 L58.6363636,121.363636 L57.9007079,121.363636 C56.8007682,121.363636 55.9090909,122.258825 55.9090909,123.370615 L55.9090909,138.447567 C55.9090909,139.55599 56.8069313,140.454545 57.9007079,140.454545 L58.6363636,140.454545 L58.6363636,158.181818 L57.9007079,158.181818 C56.8007682,158.181818 55.9090909,159.076538 55.9090909,160.179266 L55.9090909,169.820734 C55.9090909,170.923894 56.8069313,171.818182 57.9007079,171.818182 L58.6363636,171.818182 L58.6363636,189.545455 L57.9007079,189.545455 C56.8007682,189.545455 55.9090909,190.440174 55.9090909,191.542903 L55.9090909,201.18437 C55.9090909,202.28753 56.8069313,203.181818 57.9007079,203.181818 L58.6363636,203.181818 L58.6363636,268.974539 C83.9356308,288.431523 115.616833,300 150,300 C184.383167,300 216.064369,288.431523 241.363636,268.974539 Z" id="iphone" fill="#565656"></path>
            <path d="M150,92.7272727 C147.740653,92.7272727 145.909091,90.8957105 145.909091,88.6363636 C145.909091,86.3770168 147.740653,84.5454545 150,84.5454545 C152.259347,84.5454545 154.090909,86.3770168 154.090909,88.6363636 C154.090909,90.8957105 152.259347,92.7272727 150,92.7272727 Z M135.634336,100.909091 L164.365664,100.909091 C165.471288,100.909091 166.363636,101.804566 166.363636,102.90919 L166.363636,104.363537 C166.363636,105.462929 165.469114,106.363636 164.365664,106.363636 L135.634336,106.363636 C134.528712,106.363636 133.636364,105.468162 133.636364,104.363537 L133.636364,102.90919 C133.636364,101.809798 134.530886,100.909091 135.634336,100.909091 Z" id="speaker" fill="#ABA99F"></path>
            <path d="M229.090909,277.47852 L229.090909,122.357357 C229.090909,121.80854 228.63714,121.363636 228.091118,121.363636 L71.9088822,121.363636 C71.3567127,121.363636 70.9090909,121.820083 70.9090909,122.357357 L70.9090909,277.47852 C93.8707418,291.75474 120.972478,300 150,300 C179.027522,300 206.129258,291.75474 229.090909,277.47852 Z" id="screen" fill="#3E5167"></path>
            <g id="paper-plane" transform="translate(110.400000, 163.200000)">
                <path d="M33.0372,59.255682 C33.0333141,59.255682 33.0288303,59.255682 33.0234498,59.255682 C32.8276592,59.2473085 32.673717,59.0834271 32.6820866,58.8866498 C32.7021141,58.3594183 32.6958368,57.8181312 32.662956,57.2789375 C32.6507004,57.0839546 32.8001588,56.9137931 32.9950527,56.9039243 C33.1872563,56.8740189 33.3609271,57.0402927 33.3722859,57.2352757 C33.4069603,57.7965994 33.4129386,58.3615117 33.3923134,58.9135647 C33.3845415,59.1064543 33.2270123,59.255682 33.0372,59.255682" id="Fill-5" fill="#FFFFFF"></path>
                <path d="M11.4395523,51.827489 C11.3125126,51.827489 11.1893588,51.7578095 11.1265863,51.638188 C11.033922,51.465335 11.0990859,51.2494183 11.2712621,51.1552164 C12.2116549,50.6531054 13.2255812,50.3989098 14.2876332,50.3989098 C14.3862758,50.3881438 14.504348,50.4010032 14.6152462,50.4072833 C14.810439,50.4186473 14.961691,50.5855192 14.9512289,50.7816984 C14.9404679,50.9790738 14.7790527,51.1567117 14.5775827,51.1169375 C14.4813314,51.1124517 14.3847812,51.1214233 14.2876332,51.1106574 C13.3442513,51.1106574 12.4427177,51.3373401 11.606348,51.78293 C11.5528419,51.8128353 11.4960477,51.827489 11.4395523,51.827489 Z M20.2540159,54.075176 C20.1577646,54.075176 20.0612144,54.0345047 19.9894744,53.9573489 C19.2523451,53.1343533 18.428231,52.4728467 17.542839,51.9874826 C17.3706628,51.8932808 17.3078903,51.6764669 17.4014513,51.504212 C17.4956101,51.3358448 17.712026,51.2685577 17.8842022,51.3633577 C18.8407365,51.8864025 19.7276231,52.5984492 20.5188563,53.4824517 C20.6512765,53.6271937 20.6384231,53.8523811 20.491356,53.9848618 C20.4240996,54.0428782 20.3407018,54.075176 20.2540159,54.075176 Z M7.72969386,56.9834726 C7.70428592,56.9834726 7.6791769,56.9819773 7.65376895,56.9750991 C7.46096751,56.9329325 7.34020505,56.746323 7.38085776,56.5525363 C7.63105126,55.3934044 8.08391047,54.3452215 8.72987004,53.4319117 C8.84315957,53.2743104 9.06495596,53.2369287 9.22487653,53.349971 C9.38569386,53.4633123 9.42305848,53.684612 9.30976895,53.8455028 C8.72000578,54.6753767 8.30421227,55.6377312 8.07554079,56.7041565 C8.04026859,56.8701312 7.89200578,56.9834726 7.72969386,56.9834726 Z M23.1765271,59.8666486 C23.0175032,59.8666486 22.8704361,59.7556997 22.8321747,59.5942107 C22.5795899,58.5292808 22.219096,57.5193767 21.758465,56.5908151 C21.6714801,56.4122801 21.7426224,56.2017464 21.9192823,56.1138246 C22.0938498,56.0259028 22.3072765,56.0976757 22.3945603,56.2738183 C22.8797025,57.2499293 23.2593271,58.3109716 23.5232708,59.4279369 C23.5699018,59.6193312 23.4506339,59.8107256 23.2599249,59.8567798 C23.2324245,59.8627609 23.2040274,59.8666486 23.1765271,59.8666486 Z M8.37924043,63.4143218 C8.23785271,63.4143218 8.10304116,63.3287924 8.04863827,63.1876391 C7.62716534,62.1191205 7.34947148,61.0203975 7.22990469,59.9279546 C7.20778484,59.7326726 7.34947148,59.55653 7.54376751,59.5352972 C7.72969386,59.5161577 7.91412563,59.6522271 7.93624549,59.8499016 C8.04953502,60.8795432 8.30959278,61.9139697 8.7098426,62.9274625 C8.78098484,63.1119785 8.6922065,63.3156341 8.50956823,63.3897994 C8.46652419,63.4059483 8.42228448,63.4143218 8.37924043,63.4143218 Z M31.4418801,65.5648164 C31.3874773,65.5648164 31.3339711,65.5519571 31.2825574,65.5265375 C31.1079899,65.4386158 31.0368477,65.2265868 31.1250282,65.0504442 C31.5964202,64.1096215 31.9688708,63.1012126 32.2316188,62.0554221 C32.2797444,61.8664202 32.4749372,61.7491912 32.6623581,61.7967407 C32.853665,61.8448883 32.9684491,62.0377779 32.9203235,62.2291722 C32.6453199,63.3240076 32.2543365,64.380564 31.75933,65.3698334 C31.6965574,65.4945388 31.571909,65.5648164 31.4418801,65.5648164 Z M23.3197083,66.3671773 C23.2966917,66.3671773 23.2736751,66.3647849 23.2506585,66.3588038 C23.057857,66.3205249 22.9332087,66.1336164 22.97147,65.9407268 C23.1627769,64.9744845 23.2599249,64.0276808 23.2599249,63.1302208 C23.2599249,63.0064126 23.2593271,62.8867912 23.2545444,62.7644782 C23.2485661,62.5668038 23.403704,62.4029224 23.5988968,62.3978385 C23.8278671,62.406212 23.9599884,62.5461691 23.9647711,62.7438435 C23.968657,62.8724366 23.9707495,63.0001325 23.9707495,63.1302208 C23.9707495,64.0728379 23.8691177,65.0665931 23.6685444,66.0794877 C23.634169,66.2499483 23.4850094,66.3671773 23.3197083,66.3671773 Z M12.1213819,68.7222246 C12.0370874,68.7222246 11.9530917,68.6929174 11.8864332,68.6340038 C11.0461776,67.8908555 10.292309,67.0508139 9.64814296,66.1389994 C9.53485343,65.9790057 9.57221805,65.7571079 9.73213863,65.6437666 C9.89205921,65.5304252 10.1147523,65.5678069 10.227444,65.729595 C10.8402238,66.5953552 11.5573256,67.3953237 12.3563307,68.1013893 C12.5030989,68.2314776 12.5177458,68.4563659 12.387717,68.6005098 C12.3165747,68.6824505 12.2200245,68.7222246 12.1213819,68.7222246 Z M27.2199769,70.4905287 C27.1066874,70.4905287 26.9957892,70.4364 26.9261415,70.3329274 C26.8167379,70.1714385 26.8588852,69.951036 27.0208982,69.8391899 C27.8796866,69.2572315 28.6709199,68.5415962 29.3733747,67.7114233 C29.5004144,67.5607003 29.7246022,67.5430562 29.8737617,67.6716492 C30.0238181,67.7972517 30.042052,68.0224391 29.915909,68.1707697 C29.1704101,69.0490902 28.3310513,69.8098826 27.4196534,70.4262322 C27.3583755,70.469894 27.2887278,70.4905287 27.2199769,70.4905287 Z M17.8244188,71.8365691 C17.7924347,71.8365691 17.758657,71.8326814 17.7257762,71.8243079 C16.6430989,71.5111987 15.60227,71.0823558 14.630491,70.55333 C14.4583148,70.4606233 14.3940477,70.2470991 14.4873097,70.0727508 C14.5823653,69.8995987 14.7972866,69.834405 14.9685661,69.9295041 C15.8955076,70.4331104 16.8909011,70.8404215 17.9239581,71.1412694 C18.1107812,71.1956972 18.2201848,71.3930726 18.1651841,71.5799811 C18.1215422,71.7378814 17.9792578,71.8365691 17.8244188,71.8365691 Z M21.2174253,72.3578196 L21.0362816,72.3554271 C20.8401921,72.3470536 20.6871466,72.1831722 20.6949184,71.986694 C20.7002989,71.8479331 20.7828,71.7324984 20.9008722,71.6780707 C21.3561227,70.7791155 21.7509921,69.8882347 22.0732245,69.0314461 C22.1419755,68.84693 22.3446412,68.7542233 22.5314643,68.8239028 C22.7144014,68.8935823 22.806169,69.0966397 22.7374181,69.2826511 C22.449561,70.0488265 22.1067032,70.8359356 21.7148231,71.6368013 C22.5520895,71.5946347 23.3791928,71.4522852 24.1758065,71.2103508 C24.3665155,71.1535306 24.5608116,71.2599937 24.6205949,71.4454069 C24.6770903,71.6344088 24.5715726,71.8317842 24.3832549,71.8909968 C23.3618556,72.2002183 22.2956188,72.3578196 21.2174253,72.3578196 Z M17.564361,78.0383432 C17.4917242,78.0383432 17.4172939,78.0156151 17.3530267,77.9671685 C17.1954975,77.8517338 17.1617199,77.6310322 17.2788953,77.4719356 C17.9478715,76.5640088 18.5669285,75.661465 19.1223162,74.7894246 C19.2272361,74.6255432 19.4475379,74.5756013 19.612839,74.679971 C19.7790368,74.7855369 19.8271625,75.0059394 19.7222426,75.1722132 C19.1599798,76.0580101 18.5301617,76.971918 17.8522181,77.8936013 C17.7807769,77.9863079 17.6746614,78.0383432 17.564361,78.0383432 Z M13.3914801,83.0905552 C13.3059899,83.0905552 13.219304,83.0606498 13.1520477,82.9978486 C13.0073718,82.8653678 12.9966108,82.6386852 13.129031,82.4963356 C13.8721386,81.6817136 14.5922296,80.853335 15.2695755,80.0366196 C15.3957184,79.8858965 15.6190094,79.8619722 15.7699625,79.9884719 C15.9206166,80.1146726 15.9421386,80.3389628 15.8165935,80.4881905 C15.1317747,81.315971 14.4033141,82.1542183 13.6539292,82.9748215 C13.5836838,83.0522763 13.4880303,83.0905552 13.3914801,83.0905552 Z M8.78576751,87.7528013 C8.69071191,87.7528013 8.59655307,87.7154196 8.52541083,87.6394599 C8.39239278,87.4965123 8.39926787,87.2728202 8.5424491,87.1382461 C9.33816606,86.3924063 10.1255134,85.6253338 10.8823711,84.8612517 C11.0201718,84.7203975 11.2443596,84.7203975 11.3851495,84.8567659 C11.523548,84.9961249 11.5259394,85.2204151 11.386644,85.3603722 C10.6244058,86.1313325 9.83108014,86.9067785 9.02908592,87.6585994 C8.95943827,87.7214006 8.87125776,87.7528013 8.78576751,87.7528013 Z M3.85842022,92.0792101 C3.7558917,92.0792101 3.65485776,92.0325577 3.58371552,91.9491218 C3.45966498,91.7980997 3.48178484,91.5732114 3.63423249,91.4491041 C4.467613,90.7645703 5.2992,90.0594019 6.12421083,89.3359912 C6.26888664,89.2035104 6.4954657,89.2211546 6.62459783,89.3673918 C6.75313213,89.5145262 6.73878412,89.7394145 6.59261372,89.8698019 C5.76162455,90.5985956 4.92346137,91.3106423 4.08499928,91.9972694 C4.01744404,92.0546877 3.93793213,92.0792101 3.85842022,92.0792101 L3.85842022,92.0792101 Z" id="Fill-6" fill="#FFFFFF"></path>
                <path d="M0.467506137,94.7052 C0.358102527,94.7052 0.251987004,94.6546599 0.18233935,94.5619533 C0.0651638989,94.4019596 0.0989415162,94.1815571 0.255574007,94.0643281 C0.688106859,93.7428454 1.12273213,93.4126902 1.55795523,93.0789464 C1.71488664,92.9617174 1.93698195,92.9895293 2.05714657,93.1426448 C2.17641444,93.2993489 2.14741949,93.5221438 1.99198267,93.6417653 C1.55347148,93.979995 1.11585704,94.3116454 0.680335018,94.6331281 C0.615470036,94.6821729 0.541039711,94.7052 0.467506137,94.7052" id="Fill-7" fill="#FFFFFF"></path>
                <polyline id="Fill-8" fill="#B5CCDB" points="22.8154354 38.0384252 32.7663812 59.7900909 82.8 0.155507886 22.8154354 38.0384252"></polyline>
                <polyline id="Fill-9" fill="#E4782C" points="40.3627581 26.9560959 22.8154354 38.0384252 32.7663812 59.7900909 47.4028505 42.3441994 40.3627581 26.9560959"></polyline>
                <polyline id="Fill-10" fill="#F6FAFC" points="30.2303697 40.1470524 57.3669487 47.8701123 82.8 0.155507886 30.2303697 40.1470524"></polyline>
                <polyline id="Fill-11" fill="#F6FAFC" points="6.27725632 33.3271344 22.8154354 38.0384252 82.8 0.155507886 6.27725632 33.3271344"></polyline>
                <polyline id="Fill-12" fill="#EA863D" points="32.7663812 59.7900909 30.2303697 40.1470524 45.58693 44.511441 32.7663812 59.7900909"></polyline>
                <polyline id="Fill-13" fill="#ED9552" points="6.27725632 33.3271344 40.3627581 26.9560959 22.8154354 38.0384252 6.27725632 33.3271344"></polyline>
                <polyline id="Fill-14" fill="#ED9552" points="45.58693 28.468111 30.2303697 40.1470524 57.3669487 47.8701123 45.58693 28.468111"></polyline>
            </g>
        </g>
    </g>
</svg>