<?xml version="1.0" encoding="UTF-8" standalone="no"?>
<svg width="300px" height="300px" viewBox="0 0 300 300" version="1.1" xmlns="http://www.w3.org/2000/svg" xmlns:xlink="http://www.w3.org/1999/xlink">
    <!-- Generator: Sketch 44.1 (41455) - http://www.bohemiancoding.com/sketch -->
    <title>like copy</title>
    <desc>Created with Sketch.</desc>
    <defs>
        <polygon id="path-1" points="0.0206264324 122.727273 0.0206264324 0.0264705882 122.700802 0.0264705882 122.700802 122.727273"></polygon>
    </defs>
    <g id="App" stroke="none" stroke-width="1" fill="none" fill-rule="evenodd">
        <g id="like-copy">
            <circle id="Oval-1" fill="#F5F5F5" cx="150" cy="150" r="150"></circle>
            <path d="M241.363636,268.974539 L241.363636,86.8156065 C241.363636,75.7713338 232.411108,66.8181818 221.373423,66.8181818 L211.363636,66.8181818 L211.363636,66.0900491 C211.363636,64.9859546 210.465796,64.0909091 209.372019,64.0909091 L183.355253,64.0909091 C182.255314,64.0909091 181.363636,64.993352 181.363636,66.0900491 L181.363636,66.8181818 L78.626577,66.8181818 C67.586287,66.8181818 58.6363636,75.7634018 58.6363636,86.8156065 L58.6363636,121.363636 L57.9007079,121.363636 C56.8007682,121.363636 55.9090909,122.258825 55.9090909,123.370615 L55.9090909,138.447567 C55.9090909,139.55599 56.8069313,140.454545 57.9007079,140.454545 L58.6363636,140.454545 L58.6363636,158.181818 L57.9007079,158.181818 C56.8007682,158.181818 55.9090909,159.076538 55.9090909,160.179266 L55.9090909,169.820734 C55.9090909,170.923894 56.8069313,171.818182 57.9007079,171.818182 L58.6363636,171.818182 L58.6363636,189.545455 L57.9007079,189.545455 C56.8007682,189.545455 55.9090909,190.440174 55.9090909,191.542903 L55.9090909,201.18437 C55.9090909,202.28753 56.8069313,203.181818 57.9007079,203.181818 L58.6363636,203.181818 L58.6363636,268.974539 C83.9356308,288.431523 115.616833,300 150,300 C184.383167,300 216.064369,288.431523 241.363636,268.974539 Z" id="iphone" fill="#565656"></path>
            <path d="M150,92.7272727 C147.740653,92.7272727 145.909091,90.8957105 145.909091,88.6363636 C145.909091,86.3770168 147.740653,84.5454545 150,84.5454545 C152.259347,84.5454545 154.090909,86.3770168 154.090909,88.6363636 C154.090909,90.8957105 152.259347,92.7272727 150,92.7272727 Z M135.634336,100.909091 L164.365664,100.909091 C165.471288,100.909091 166.363636,101.804566 166.363636,102.90919 L166.363636,104.363537 C166.363636,105.462929 165.469114,106.363636 164.365664,106.363636 L135.634336,106.363636 C134.528712,106.363636 133.636364,105.468162 133.636364,104.363537 L133.636364,102.90919 C133.636364,101.809798 134.530886,100.909091 135.634336,100.909091 Z" id="speaker" fill="#ABA99F"></path>
            <path d="M229.090909,277.47852 L229.090909,122.357357 C229.090909,121.80854 228.63714,121.363636 228.091118,121.363636 L71.9088822,121.363636 C71.3567127,121.363636 70.9090909,121.820083 70.9090909,122.357357 L70.9090909,277.47852 C93.8707418,291.75474 120.972478,300 150,300 C179.027522,300 206.129258,291.75474 229.090909,277.47852 Z" id="screen" fill="#3E5167"></path>
            <g id="pie-chart" transform="translate(90.000000, 148.636364)">
                <g id="Group-3">
                    <mask id="mask-2" fill="white">
                        <use xlink:href="#path-1"></use>
                    </mask>
                    <g id="Clip-2"></g>
                </g>
                <path d="M62.7205118,19.4631016 C62.7205118,19.7264324 62.5056532,19.9344156 62.2416348,19.9344156 C61.9800229,19.9344156 61.7641329,19.7264324 61.7641329,19.4631016 C61.7641329,19.2014897 61.9807105,18.9859435 62.2416348,18.9859435 C62.5056532,18.9849121 62.7205118,19.2014897 62.7205118,19.4631016" id="Fill-4" fill="#FFFFFF"></path>
                <path d="M60.4677617,19.5029794 C60.4828877,19.7659664 60.2807487,19.9801375 60.0201681,19.9962949 C59.7595875,20.0124523 59.5326967,19.8116883 59.5258212,19.5487013 C59.5089763,19.2864018 59.7097403,19.0619175 59.9737586,19.0467914 C60.2350267,19.0316654 60.4595111,19.2406799 60.4677617,19.5029794" id="Fill-5" fill="#FFFFFF"></path>
                <path d="M58.2287624,19.6483957 C58.258327,19.9117265 58.0730328,20.1427426 57.8124523,20.174026 C57.5491215,20.196715 57.3198243,20.0124523 57.2885409,19.7501528 C57.2572574,19.4857907 57.4501146,19.2568373 57.7117265,19.2252101 C57.974026,19.194958 58.205042,19.3871276 58.2287624,19.6483957" id="Fill-6" fill="#FFFFFF"></path>
                <path d="M56.0042017,19.9192895 C56.0506112,20.1805577 55.8670359,20.4218869 55.6122995,20.4600458 C55.3489687,20.5064553 55.1114209,20.3211612 55.065699,20.0647059 C55.0258212,19.8034377 55.2042399,19.5638273 55.4658518,19.5181054 C55.7195569,19.4782277 55.9660428,19.6559587 56.0042017,19.9192895" id="Fill-7" fill="#FFFFFF"></path>
                <path d="M53.7971734,20.3050038 C53.8511459,20.5590527 53.6895722,20.8144767 53.4265852,20.8608862 C53.1718487,20.9220779 52.9171123,20.7508785 52.862796,20.4971734 C52.8112299,20.2407181 52.9721161,19.9877005 53.2251337,19.933728 C53.4898396,19.8811306 53.7363254,20.0427044 53.7971734,20.3050038" id="Fill-8" fill="#FFFFFF"></path>
                <path d="M51.6052712,20.7983193 C51.6729947,21.0547746 51.5275783,21.3153552 51.2669977,21.3847976 C51.0191367,21.4473644 50.755806,21.2995416 50.6880825,21.0465241 C50.6186402,20.7907563 50.7726509,20.5294882 51.0266998,20.4600458 C51.2821238,20.3981665 51.5427044,20.5435829 51.6052712,20.7983193" id="Fill-9" fill="#FFFFFF"></path>
                <path d="M49.4443086,21.416081 C49.5305959,21.6625668 49.3958365,21.931398 49.1438503,22.0187166 C48.8891138,22.0957219 48.6268144,21.9578686 48.542246,21.7089763 C48.4659282,21.4628342 48.5955309,21.1850649 48.8492361,21.107372 C49.097097,21.0310542 49.3679908,21.1613445 49.4443086,21.416081" id="Fill-10" fill="#FFFFFF"></path>
                <path d="M47.3304431,22.1421314 C47.4225745,22.3886173 47.2991597,22.6584798 47.0509549,22.7592055 C46.8048128,22.8513369 46.5273873,22.7286096 46.4342246,22.4800611 C46.3403743,22.2346066 46.465508,21.9578686 46.7116501,21.862987 C46.9598549,21.7715432 47.2279985,21.8942704 47.3304431,22.1421314" id="Fill-11" fill="#FFFFFF"></path>
                <path d="M45.2444232,22.9750955 C45.3520244,23.2143621 45.2444232,23.500382 44.9982811,23.6086707 C44.7672651,23.7087089 44.4795264,23.5993888 44.373644,23.3608098 C44.2646677,23.1222307 44.373644,22.8362108 44.6132544,22.7286096 C44.8593965,22.6278839 45.1385409,22.737204 45.2444232,22.9750955" id="Fill-12" fill="#FFFFFF"></path>
                <path d="M43.2085943,23.9166921 C43.3313216,24.1459893 43.2398778,24.4406035 43.0002674,24.5574866 C42.7692513,24.6733384 42.4815126,24.5801757 42.3605042,24.350191 C42.2353705,24.1174561 42.3360963,23.8245607 42.5671123,23.7087089 C42.80466,23.5925134 43.0841482,23.6856761 43.2085943,23.9166921" id="Fill-13" fill="#FFFFFF"></path>
                <path d="M41.2233002,24.9669213 C41.3553094,25.1979374 41.2789916,25.4839572 41.0445378,25.6152788 C40.8231474,25.7462567 40.5292208,25.6692513 40.3965241,25.4468296 C40.2679526,25.2140947 40.3432391,24.9211994 40.5732238,24.7984721 C40.8001146,24.6571811 41.0930099,24.7359053 41.2233002,24.9669213" id="Fill-14" fill="#FFFFFF"></path>
                <path d="M39.3022918,26.1168449 C39.4394576,26.3402979 39.3786096,26.6338808 39.1620321,26.7717341 C38.9385791,26.9199007 38.6381207,26.8573338 38.5009549,26.6338808 C38.3603514,26.4190222 38.4198243,26.1237204 38.6381207,25.978304 C38.8615737,25.8325439 39.1551566,25.8933919 39.3022918,26.1168449" id="Fill-15" fill="#FFFFFF"></path>
                <path d="M37.4331933,27.3668067 C37.5889228,27.5765088 37.5404507,27.8769672 37.3238732,28.0320092 C37.1172651,28.1867074 36.817838,28.1392666 36.6597021,27.9302521 C36.5074102,27.7153934 36.5538197,27.4207792 36.7686784,27.2592055 C36.9852559,27.1137892 37.2781513,27.1595111 37.4331933,27.3668067" id="Fill-16" fill="#FFFFFF"></path>
                <path d="M35.6431627,28.7188694 C35.8067991,28.9179144 35.7751719,29.2207792 35.5654698,29.3806341 C35.3657372,29.5508021 35.0628724,29.5212376 34.9030176,29.3129106 C34.7328495,29.1032086 34.7641329,28.8103132 34.970741,28.641864 C35.1735676,28.4785714 35.4733384,28.5091673 35.6431627,28.7188694" id="Fill-17" fill="#FFFFFF"></path>
                <path d="M33.9143239,30.1534377 C34.0913675,30.3469824 34.0779603,30.6474408 33.8830405,30.8262032 C33.6833079,31.002903 33.3890374,30.9884645 33.210275,30.7880443 C33.0335752,30.5934683 33.0504202,30.2936975 33.2501528,30.1152788 C33.4354469,29.9375477 33.7444996,29.9526738 33.9143239,30.1534377" id="Fill-18" fill="#FFFFFF"></path>
                <path d="M32.276929,31.6815126 C32.4639419,31.8668067 32.4639419,32.1607334 32.276929,32.3460275 C32.0851031,32.5395722 31.7829259,32.5395722 31.5976318,32.3460275 C31.4140565,32.1607334 31.4140565,31.8668067 31.5976318,31.6815126 C31.7829259,31.4903743 32.0851031,31.4903743 32.276929,31.6815126" id="Fill-19" fill="#FFFFFF"></path>
                <path d="M30.7100076,33.2886555 C30.9035523,33.4653552 30.9179908,33.7658136 30.7495416,33.9597021 C30.5728419,34.1532468 30.2723835,34.1676853 30.0685256,33.997861 C29.8780749,33.8208174 29.8619175,33.5196715 30.0372422,33.3189076 C30.2087853,33.1336134 30.5168067,33.1109244 30.7100076,33.2886555" id="Fill-20" fill="#FFFFFF"></path>
                <path d="M29.2376241,34.978304 C29.4356379,35.1391902 29.4669213,35.4413675 29.3053476,35.650382 C29.145149,35.8518335 28.8354087,35.881398 28.634301,35.7181054 C28.4328495,35.5565317 28.4015661,35.2485103 28.5648587,35.0477464 C28.7281513,34.8473262 29.0275783,34.8167303 29.2376241,34.978304" id="Fill-21" fill="#FFFFFF"></path>
                <path d="M27.8470588,36.7453018 C28.0636364,36.9017189 28.1103896,37.1939267 27.95466,37.4105042 C27.8006494,37.6270817 27.500191,37.6717723 27.2904889,37.5177617 C27.0752865,37.3623759 27.028877,37.0636364 27.1846066,36.846715 C27.3368984,36.6387319 27.6304813,36.5912911 27.8470588,36.7453018" id="Fill-22" fill="#FFFFFF"></path>
                <path d="M26.5565317,38.5755539 C26.7817036,38.7230328 26.8425516,39.0155844 26.6954163,39.2314744 C26.55,39.4549274 26.2571047,39.5243697 26.0412147,39.3768908 C25.8177617,39.2314744 25.7551948,38.9368602 25.9026738,38.7230328 C26.0405271,38.4985485 26.3334225,38.4359817 26.5565317,38.5755539" id="Fill-23" fill="#FFFFFF"></path>
                <path d="M25.3619175,40.4821238 C25.5929335,40.6058824 25.6689076,40.8994652 25.5386173,41.12945 C25.408327,41.3546218 25.1137128,41.4402215 24.8826967,41.3013369 C24.6578686,41.1693277 24.5825821,40.8833079 24.7128724,40.650573 C24.8438503,40.4195569 25.1367456,40.3425516 25.3619175,40.4821238" id="Fill-24" fill="#FFFFFF"></path>
                <path d="M24.2745607,42.4430099 C24.5038579,42.5588617 24.5966769,42.8438503 24.4808251,43.0748663 C24.3580978,43.3144767 24.0731092,43.4066081 23.8410619,43.2838808 C23.6035141,43.1673415 23.5086325,42.8802903 23.6330787,42.6427426 C23.7482429,42.4117265 24.0342628,42.3185638 24.2745607,42.4430099" id="Fill-25" fill="#FFFFFF"></path>
                <path d="M23.2776165,44.4482429 C23.5237586,44.5582506 23.6330787,44.8349885 23.5237586,45.082162 C23.4165011,45.320741 23.1387319,45.4290298 22.8925898,45.320741 C22.6615737,45.2124523 22.5522536,44.9350267 22.6615737,44.6971352 C22.7595493,44.4482429 23.0455691,44.341673 23.2776165,44.4482429" id="Fill-26" fill="#FFFFFF"></path>
                <path d="M22.3965241,46.5174179 C22.6464477,46.6095493 22.7681436,46.8880061 22.6742934,47.1265852 C22.5835371,47.3754775 22.3037051,47.4971734 22.0572193,47.4060733 C21.8093583,47.3043163 21.686631,47.0351413 21.7883881,46.7889992 C21.8788006,46.5411383 22.150382,46.4242552 22.3965241,46.5174179" id="Fill-27" fill="#FFFFFF"></path>
                <path d="M21.6264706,48.6175325 C21.8794882,48.7041635 22.0132162,48.9729947 21.9355233,49.2194805 C21.8561115,49.4663102 21.5800611,49.6062261 21.3322002,49.5292208 C21.0843392,49.4419022 20.9471734,49.1727273 21.0231474,48.9248663 C21.1087471,48.6794118 21.3803285,48.5405271 21.6264706,48.6175325" id="Fill-28" fill="#FFFFFF"></path>
                <path d="M20.9681436,50.7637128 C21.2228801,50.8331551 21.3796409,51.0954545 21.3009167,51.3491597 C21.2383499,51.5963331 20.9784568,51.7527502 20.7220015,51.6877769 C20.4672651,51.6107716 20.3142857,51.3567227 20.3833843,51.1012987 C20.4528266,50.8493125 20.7144385,50.7018335 20.9681436,50.7637128" id="Fill-29" fill="#FFFFFF"></path>
                <path d="M20.4215432,52.9394576 C20.6745607,52.9934301 20.8378533,53.2481665 20.7838808,53.502903 C20.7295646,53.7576394 20.48411,53.9267762 20.2200917,53.8734912 C19.9653552,53.8202063 19.8037815,53.5665011 19.8495034,53.3100458 C19.9120703,53.0484339 20.1585561,52.8868602 20.4215432,52.9394576" id="Fill-30" fill="#FFFFFF"></path>
                <path d="M19.990107,55.1396104 C20.2431245,55.1791444 20.4215432,55.4245989 20.3833843,55.6879297 C20.3455691,55.9502292 20.0973644,56.1193659 19.8350649,56.0805195 C19.5720779,56.0423606 19.4019099,55.7962185 19.4400688,55.5328877 C19.4799465,55.2781513 19.7278075,55.102139 19.990107,55.1396104" id="Fill-31" fill="#FFFFFF"></path>
                <path d="M19.6642093,57.3641711 C19.9275401,57.3937357 20.1186784,57.625783 20.0891138,57.8880825 C20.0677998,58.1510695 19.8343774,58.3422078 19.5720779,58.3109244 C19.310466,58.2813598 19.1176089,58.0496562 19.1389228,57.7890756 C19.1719251,57.524026 19.4019099,57.3404507 19.6642093,57.3641711" id="Fill-32" fill="#FFFFFF"></path>
                <path d="M19.4644767,59.6014515 C19.7278075,59.6100458 19.9275401,59.83178 19.9189458,60.1033613 C19.9038197,60.3656608 19.6810542,60.5671123 19.4180672,60.5492361 C19.1530176,60.5330787 18.953285,60.3113445 18.9704736,60.0490451 C18.9770053,59.7867456 19.2032086,59.587013 19.4644767,59.6014515" id="Fill-33" fill="#FFFFFF"></path>
                <path d="M19.3867838,61.8397632 C19.6497708,61.8397632 19.8656608,62.0480901 19.8598167,62.3186402 C19.8598167,62.5802521 19.6497708,62.7899542 19.3867838,62.7899542 C19.123453,62.7899542 18.9096257,62.5802521 18.9096257,62.3186402 C18.9092819,62.0480901 19.1244843,61.8397632 19.3867838,61.8397632" id="Fill-34" fill="#FFFFFF"></path>
                <path d="M19.4180672,64.0856379 C19.6810542,64.0705118 19.9038197,64.270932 19.9189458,64.5332315 C19.9275401,64.7965623 19.7267762,65.0207028 19.4644767,65.0358289 C19.2032086,65.0512987 18.9770053,64.8422842 18.9704736,64.5796409 C18.953285,64.3173415 19.1540489,64.1017953 19.4180672,64.0856379" id="Fill-35" fill="#FFFFFF"></path>
                <path d="M19.5720779,66.3246371 C19.8350649,66.294385 20.0677998,66.4855233 20.0891138,66.7419786 C20.1186784,67.0032468 19.9275401,67.244576 19.6642093,67.2672651 C19.4012223,67.2968296 19.1719251,67.110848 19.1389228,66.8492361 C19.1176089,66.586249 19.310466,66.3559206 19.5720779,66.3246371" id="Fill-36" fill="#FFFFFF"></path>
                <path d="M19.8343774,68.5485103 C20.0973644,68.5086325 20.3455691,68.6863636 20.3826967,68.9496944 C20.4208556,69.2119939 20.2420932,69.4516043 19.9890756,69.4911383 C19.7260886,69.5361727 19.4782277,69.3508785 19.4390374,69.0961421 C19.4019099,68.8345302 19.5720779,68.5935447 19.8343774,68.5485103" id="Fill-37" fill="#FFFFFF"></path>
                <path d="M20.2200917,70.7620703 C20.4851413,70.7087853 20.7295646,70.8707028 20.7838808,71.1268144 C20.8378533,71.3884263 20.6745607,71.6362872 20.4215432,71.6971352 C20.1585561,71.744576 19.9120703,71.5823147 19.8495034,71.326547 C19.803094,71.06356 19.9653552,70.8163866 20.2200917,70.7620703" id="Fill-38" fill="#FFFFFF"></path>
                <path d="M20.7220015,72.9481283 C20.9784568,72.886249 21.2373186,73.0241024 21.3009167,73.2864018 C21.3720779,73.5342628 21.2228801,73.7975936 20.9640183,73.8660046 C20.7144385,73.9354469 20.4528266,73.7790298 20.3833843,73.5342628 C20.3142857,73.2798701 20.4682964,73.0165393 20.7220015,72.9481283" id="Fill-39" fill="#FFFFFF"></path>
                <path d="M21.3322002,75.1084034 C21.5800611,75.023835 21.8561115,75.1623759 21.9355233,75.4164248 C22.0132162,75.665317 21.8712376,75.9265852 21.6264706,76.0121849 C21.3803285,76.0967532 21.1094347,75.9571811 21.0231474,75.7100076 C20.9471734,75.4569901 21.0843392,75.1854087 21.3322002,75.1084034" id="Fill-40" fill="#FFFFFF"></path>
                <path d="M22.0572193,77.2315508 C22.3037051,77.1308251 22.5828495,77.2542399 22.6742934,77.5007257 C22.7681436,77.7468678 22.6464477,78.0253247 22.3968678,78.1174561 C22.150382,78.2113063 21.8794882,78.0861727 21.7883881,77.8400306 C21.6876623,77.5935447 21.8093583,77.3247135 22.0572193,77.2315508" id="Fill-41" fill="#FFFFFF"></path>
                <path d="M22.8925898,79.3072574 C23.1387319,79.2065317 23.4165011,79.3072574 23.5237586,79.5533995 C23.6330787,79.7930099 23.5237586,80.0790298 23.2776165,80.186631 C23.0466005,80.2873568 22.7605806,80.1797555 22.6529794,79.9401451 C22.5440031,79.7008785 22.6605424,79.4148587 22.8925898,79.3072574" id="Fill-42" fill="#FFFFFF"></path>
                <path d="M23.8328113,81.3458365 C24.0720779,81.2289534 24.3580978,81.3228037 24.4808251,81.5538197 C24.5966769,81.7934301 24.5038579,82.07945 24.2676853,82.1953018 C24.0349503,82.318029 23.7489305,82.2258976 23.6330787,81.9855997 C23.5086325,81.7545837 23.6035141,81.4685638 23.8328113,81.3458365" id="Fill-43" fill="#FFFFFF"></path>
                <path d="M24.8820092,83.3369748 C25.1130252,83.1980901 25.4076394,83.2761268 25.5379297,83.5061115 C25.66822,83.7388464 25.5919022,84.0231474 25.3608862,84.1544691 C25.1281513,84.2864782 24.8438503,84.207754 24.7111536,83.9853323 C24.5815508,83.753285 24.6578686,83.4597021 24.8820092,83.3369748" id="Fill-44" fill="#FFFFFF"></path>
                <path d="M26.0405271,85.2586707 C26.2571047,85.1122231 26.55,85.173071 26.6947288,85.3982429 C26.841864,85.621696 26.781016,85.91356 26.5558442,86.0541635 C26.3323911,86.1995798 26.0405271,86.1311688 25.9016425,85.91356 C25.7551948,85.6987013 25.8177617,85.405806 26.0405271,85.2586707" id="Fill-45" fill="#FFFFFF"></path>
                <path d="M27.2904889,87.1188312 C27.500191,86.9637892 27.8013369,87.0101986 27.95466,87.2271199 C28.1103896,87.4426662 28.0636364,87.7372804 27.8470588,87.8902597 C27.6304813,88.0435829 27.3362108,87.9988923 27.1846066,87.7830023 C27.028877,87.5746753 27.0752865,87.2735294 27.2904889,87.1188312" id="Fill-46" fill="#FFFFFF"></path>
                <path d="M28.6339572,88.9167685 C28.8354087,88.7483193 29.1368984,88.7789152 29.2984721,88.9872422 C29.4669213,89.1859435 29.4356379,89.4888083 29.2376241,89.650382 C29.0275783,89.82055 28.7281513,89.7909855 28.5648587,89.589534 C28.3946906,89.3815508 28.4328495,89.0783422 28.6339572,88.9167685" id="Fill-47" fill="#FFFFFF"></path>
                <path d="M30.0685256,90.6390756 C30.271696,90.4620321 30.5625286,90.4771581 30.7395722,90.6693277 C30.9179908,90.8700917 30.9028648,91.1712376 30.7100076,91.3489687 C30.5161192,91.5198243 30.2087853,91.5036669 30.0372422,91.3101222 C29.8619175,91.1179526 29.8787624,90.8157754 30.0685256,90.6390756" id="Fill-48" fill="#FFFFFF"></path>
                <path d="M31.5976318,92.2830023 C31.7829259,92.0970206 32.0851031,92.0970206 32.2686784,92.2830023 C32.4632544,92.4676089 32.4574102,92.7687548 32.2686784,92.9540489 C32.0851031,93.1403743 31.7829259,93.1403743 31.5976318,92.9540489 C31.4140565,92.7697861 31.4140565,92.4676089 31.5976318,92.2830023" id="Fill-49" fill="#FFFFFF"></path>
                <path d="M33.210275,93.8502674 C33.3890374,93.6498472 33.6833079,93.6326585 33.8830405,93.8121085 C34.0779603,93.989152 34.0913675,94.2896104 33.9143239,94.4831551 C33.7444996,94.6753247 33.4354469,94.6897632 33.2419022,94.5127196 C33.0504202,94.3435829 33.0335752,94.042437 33.210275,93.8502674" id="Fill-50" fill="#FFFFFF"></path>
                <path d="M34.9030176,95.3243697 C35.0628724,95.1153552 35.3657372,95.0847594 35.5654698,95.2542399 C35.7669213,95.4165011 35.8067991,95.7179908 35.6349121,95.9194423 C35.4733384,96.1274255 35.1735676,96.1569901 34.9638655,95.9885409 C34.7641329,95.8252483 34.7328495,95.5247899 34.9030176,95.3243697" id="Fill-51" fill="#FFFFFF"></path>
                <path d="M36.6597021,96.7046218 C36.8188694,96.4904507 37.1090145,96.4430099 37.3238732,96.5970206 C37.5404507,96.7520626 37.5889228,97.0532086 37.4331933,97.2615355 C37.2774637,97.4770817 36.9852559,97.5255539 36.7686784,97.368793 C36.5538197,97.2158136 36.5080978,96.9211994 36.6597021,96.7046218" id="Fill-52" fill="#FFFFFF"></path>
                <path d="M38.5009549,98.0016807 C38.6381207,97.7785714 38.931016,97.7080978 39.1551566,97.8562643 C39.3786096,98.0016807 39.4394576,98.2962949 39.2940413,98.5111536 C39.1465623,98.7356379 38.8529794,98.7982047 38.6381207,98.6586325 C38.4139801,98.5121849 38.350382,98.218602 38.5009549,98.0016807" id="Fill-53" fill="#FFFFFF"></path>
                <path d="M40.3965241,99.191482 C40.5285332,98.9597785 40.8231474,98.8827731 41.0445378,99.0216578 C41.2789916,99.1450726 41.3553094,99.4386555 41.2233002,99.6696715 C41.0930099,99.8948434 40.8001146,99.9725363 40.5673797,99.8405271 C40.3439267,99.7171123 40.2679526,99.4235294 40.3965241,99.191482" id="Fill-54" fill="#FFFFFF"></path>
                <path d="M42.3605042,100.287433 C42.4815126,100.047823 42.760657,99.9550038 43.0002674,100.070856 C43.2295646,100.193583 43.3313216,100.478571 43.2085943,100.718869 C43.0848358,100.951604 42.797097,101.044079 42.5671123,100.920321 C42.3285332,100.803782 42.2343392,100.519137 42.3605042,100.287433" id="Fill-55" fill="#FFFFFF"></path>
                <path d="M44.373644,101.274064 C44.4726509,101.02861 44.7603896,100.920321 44.9982811,101.02861 C45.2444232,101.136898 45.345149,101.422918 45.2444232,101.66081 C45.1385409,101.90042 44.852521,102.008709 44.6132544,101.90042 C44.373644,101.792131 44.2646677,101.514362 44.373644,101.274064" id="Fill-56" fill="#FFFFFF"></path>
                <path d="M46.4342246,102.155157 C46.526356,101.908671 46.8048128,101.784225 47.0509549,101.8767 C47.2991597,101.978113 47.4225745,102.247288 47.3218487,102.495149 C47.2279985,102.741291 46.9598549,102.86505 46.7116501,102.771199 C46.465508,102.681474 46.3403743,102.401299 46.4342246,102.155157" id="Fill-57" fill="#FFFFFF"></path>
                <path d="M48.5412147,102.926929 C48.625783,102.681474 48.8880825,102.54259 49.1362872,102.619595 C49.3893048,102.703476 49.5295646,102.974026 49.4432773,103.221199 C49.3673033,103.468373 49.0964095,103.607945 48.841673,103.529221 C48.5944996,103.443965 48.4576776,103.175477 48.5412147,102.926929" id="Fill-58" fill="#FFFFFF"></path>
                <path d="M50.6880825,103.591788 C50.755806,103.336364 51.0191367,103.182353 51.2669977,103.251795 C51.5217341,103.321238 51.6729947,103.575974 51.6052712,103.838273 C51.5344538,104.084416 51.2728419,104.240145 51.0191367,104.17139 C50.7726509,104.098854 50.6186402,103.846524 50.6880825,103.591788" id="Fill-59" fill="#FFFFFF"></path>
                <path d="M52.8638273,104.131856 C52.9177998,103.883995 53.1642857,103.715546 53.4272727,103.7678 C53.6820092,103.821085 53.8435829,104.075134 53.7896104,104.331589 C53.7363254,104.593888 53.4898396,104.75615 53.2258212,104.702865 C52.9728037,104.647861 52.8122613,104.393125 52.8638273,104.131856" id="Fill-60" fill="#FFFFFF"></path>
                <path d="M55.0646677,104.570856 C55.1028266,104.308556 55.3489687,104.131856 55.6037051,104.178266 C55.8670359,104.216425 56.0420168,104.455004 56.0042017,104.719022 C55.9591673,104.980634 55.7195569,105.149771 55.4572574,105.119175 C55.2035523,105.072765 55.0172269,104.826623 55.0646677,104.570856" id="Fill-61" fill="#FFFFFF"></path>
                <path d="M57.2878533,104.887471 C57.3088235,104.624141 57.5491215,104.439878 57.8031704,104.462567 C58.0661574,104.49385 58.2576394,104.727617 58.2277311,104.988197 C58.1964477,105.244652 57.9664629,105.435791 57.7024446,105.413102 C57.441864,105.381474 57.2565699,105.149771 57.2878533,104.887471" id="Fill-62" fill="#FFFFFF"></path>
                <path d="M59.5175707,105.087204 C59.5326967,104.825592 59.7585561,104.624141 60.0201681,104.640298 C60.28178,104.656455 60.4828877,104.872345 60.4677617,105.133613 C60.4509167,105.397632 60.2350267,105.598396 59.9737586,105.589801 C59.7097403,105.574675 59.5089763,105.35191 59.5175707,105.087204" id="Fill-63" fill="#FFFFFF"></path>
                <path d="M61.7634454,105.173491 C61.7634454,104.911192 61.9714286,104.696333 62.2364782,104.696333 C62.5056532,104.696333 62.7129488,104.911879 62.7129488,105.173491 C62.7129488,105.436478 62.4977464,105.644805 62.2416348,105.644805 C61.9714286,105.644805 61.7634454,105.435791 61.7634454,105.173491" id="Fill-64" fill="#FFFFFF"></path>
                <path d="M64.0031322,105.133613 C63.9862872,104.872345 64.1887701,104.647861 64.4510695,104.640298 C64.7123377,104.624141 64.9450726,104.826623 64.9601986,105.087204 C64.968793,105.35191 64.7656226,105.574675 64.5043545,105.589801 C64.2393048,105.604927 64.0175707,105.397632 64.0031322,105.133613" id="Fill-65" fill="#FFFFFF"></path>
                <path d="M66.2407563,104.988197 C66.2177235,104.726585 66.4006112,104.486287 66.665317,104.462567 C66.926929,104.439878 67.1682582,104.624141 67.1892284,104.887471 C67.2122613,105.149771 67.0276547,105.381474 66.7643239,105.413102 C66.5020244,105.443354 66.2692895,105.251184 66.2407563,104.988197" id="Fill-66" fill="#FFFFFF"></path>
                <path d="M68.4704736,104.719022 C68.4340336,104.455004 68.6007639,104.216425 68.8640947,104.178266 C69.1270817,104.131856 69.3749427,104.308556 69.4062261,104.570856 C69.4529794,104.826623 69.274217,105.072765 69.0194805,105.118487 C68.7547746,105.156646 68.5103514,104.979603 68.4704736,104.719022" id="Fill-67" fill="#FFFFFF"></path>
                <path d="M70.6867838,104.332277 C70.624217,104.075821 70.7875095,103.822116 71.042246,103.768831 C71.3035141,103.715546 71.5592819,103.884683 71.6142857,104.132544 C71.6675707,104.394156 71.5032468,104.647861 71.2426662,104.704584 C70.9879297,104.757181 70.7349121,104.593888 70.6867838,104.332277" id="Fill-68" fill="#FFFFFF"></path>
                <path d="M72.8714668,103.838273 C72.8023682,103.574943 72.9477846,103.321238 73.202521,103.251795 C73.4589763,103.182353 73.7195569,103.337051 73.792437,103.591788 C73.8515661,103.846524 73.7033995,104.099542 73.450382,104.17139 C73.1939267,104.239114 72.9391902,104.084416 72.8714668,103.838273" id="Fill-69" fill="#FFFFFF"></path>
                <path d="M75.0234912,103.220512 C74.9475172,102.973338 75.0778075,102.702445 75.333919,102.618908 C75.5804049,102.541902 75.8495798,102.680443 75.9341482,102.925898 C76.0118411,103.17479 75.8729565,103.442934 75.6268144,103.528533 C75.3789534,103.607257 75.1097785,103.467341 75.0234912,103.220512" id="Fill-70" fill="#FFFFFF"></path>
                <path d="M77.1542017,102.49618 C77.0534759,102.247976 77.1789534,101.97055 77.4233766,101.877387 C77.666081,101.785256 77.9421314,101.909702 78.0352941,102.155844 C78.134301,102.401986 78.0040107,102.681474 77.7661192,102.772918 C77.5165393,102.86505 77.2466769,102.742322 77.1542017,102.49618" id="Fill-71" fill="#FFFFFF"></path>
                <path d="M79.2385027,101.66081 C79.1243697,101.422918 79.2316272,101.136898 79.4712376,101.02861 C79.7173797,100.927884 79.995149,101.02861 80.1041253,101.274064 C80.2117265,101.513675 80.1041253,101.799694 79.8579832,101.90042 C79.6166539,102.009396 79.3409473,101.901108 79.2385027,101.66081" id="Fill-72" fill="#FFFFFF"></path>
                <path d="M81.2695187,100.718869 C81.155042,100.479603 81.2382353,100.193583 81.4775019,100.078419 C81.7067991,99.9550038 81.9928189,100.047823 82.1103896,100.287433 C82.2341482,100.518449 82.1420168,100.80275 81.9110008,100.927884 C81.6772345,101.044079 81.3853705,100.952636 81.2695187,100.718869" id="Fill-73" fill="#FFFFFF"></path>
                <path d="M83.253094,99.668984 C83.1224599,99.4386555 83.1994652,99.144385 83.4229183,99.0206264 C83.6522154,98.8903361 83.9485485,98.9587471 84.0712758,99.1907945 C84.2101604,99.4224981 84.1321238,99.716081 83.9028266,99.8398396 C83.6676853,99.9776929 83.3833843,99.9006875 83.253094,99.668984" id="Fill-74" fill="#FFFFFF"></path>
                <path d="M85.1813216,98.5121849 C85.0359053,98.2962949 85.0967532,98.0016807 85.3184874,97.8631398 C85.5385027,97.7173797 85.8303667,97.7785714 85.9778457,98.0016807 C86.1150115,98.218602 86.0538197,98.5121849 85.8372422,98.6586325 C85.6165393,98.8047364 85.3184874,98.7356379 85.1813216,98.5121849" id="Fill-75" fill="#FFFFFF"></path>
                <path d="M87.0438885,97.2615355 C86.88644,97.0532086 86.9245989,96.7510313 87.1428953,96.5970206 C87.357754,96.4516043 87.6523682,96.4904507 87.8056914,96.7046218 C87.9614209,96.9211994 87.9129488,97.2158136 87.7066845,97.368793 C87.4890756,97.5255539 87.1978992,97.4770817 87.0438885,97.2615355" id="Fill-76" fill="#FFFFFF"></path>
                <path d="M88.8404507,95.9194423 C88.6720015,95.7179908 88.7015661,95.4165011 88.9030176,95.2542399 C89.1096257,95.0847594 89.4124905,95.1153552 89.5740642,95.3243697 C89.7356379,95.5326967 89.7043545,95.8252483 89.5046218,95.9964477 C89.3048892,96.1580214 89.0030558,96.1274255 88.8404507,95.9194423" id="Fill-77" fill="#FFFFFF"></path>
                <path d="M90.5624141,94.4831551 C90.3839954,94.2817036 90.4008403,93.989152 90.5919786,93.8121085 C90.7858671,93.6326585 91.0932009,93.6498472 91.2647441,93.8502674 C91.4435065,94.042437 91.4204736,94.3435829 91.2351795,94.521314 C91.033728,94.6983575 90.7394576,94.6822002 90.5624141,94.4831551" id="Fill-78" fill="#FFFFFF"></path>
                <path d="M92.2077158,92.9540489 C92.0220779,92.7687548 92.0138273,92.4676089 92.1991215,92.2830023 C92.3912911,92.0970206 92.6865928,92.0970206 92.8701681,92.2830023 C93.0647441,92.4676089 93.0554622,92.7687548 92.8787624,92.9540489 C92.6917494,93.1403743 92.3912911,93.1403743 92.2077158,92.9540489" id="Fill-79" fill="#FFFFFF"></path>
                <path d="M93.7663866,91.3489687 C93.5649351,91.1712376 93.5480901,90.8707792 93.7282277,90.6768908 C93.9049274,90.4850649 94.2071047,90.4620321 94.3992743,90.6390756 C94.5990069,90.8157754 94.6158518,91.1169213 94.4374332,91.3183728 C94.2621085,91.5112299 93.9644003,91.5198243 93.7663866,91.3489687" id="Fill-80" fill="#FFFFFF"></path>
                <path d="M95.2470206,89.650382 C95.0390374,89.4888083 95.0025974,89.1859435 95.1693277,88.9872422 C95.3412147,88.7864782 95.6337662,88.7562261 95.8352177,88.9167685 C96.0435447,89.0783422 96.0748281,89.3891138 95.9115355,89.589534 C95.7413675,89.7909855 95.4484721,89.82055 95.2470206,89.650382" id="Fill-81" fill="#FFFFFF"></path>
                <path d="M96.6300229,87.8902597 C96.4131016,87.736249 96.3649733,87.4426662 96.5207028,87.2271199 C96.6764324,87.0101986 96.9768908,86.9637892 97.1848739,87.1188312 C97.4014515,87.2735294 97.4482047,87.5746753 97.2924752,87.7830023 C97.1408709,87.9988923 96.8390374,88.0442704 96.6300229,87.8902597" id="Fill-82" fill="#FFFFFF"></path>
                <path d="M97.9195187,86.0541635 C97.7029412,85.91356 97.6334989,85.6210084 97.7789152,85.3982429 C97.9195187,85.1816654 98.2124141,85.1122231 98.4331169,85.2586707 C98.6600076,85.405806 98.7225745,85.6997326 98.5737204,85.91356 C98.4331169,86.1387319 98.1429717,86.1995798 97.9195187,86.0541635" id="Fill-83" fill="#FFFFFF"></path>
                <path d="M99.1144767,84.1544691 C98.8834607,84.0241788 98.8071429,83.7398778 98.9374332,83.5061115 C99.0677235,83.2826585 99.3623377,83.1980901 99.5857907,83.3369748 C99.8185256,83.4597021 99.8944996,83.753285 99.7624905,83.9853323 C99.6297937,84.207754 99.3410237,84.2947288 99.1144767,84.1544691" id="Fill-84" fill="#FFFFFF"></path>
                <path d="M100.201833,82.1953018 C99.9725363,82.07945 99.8793736,81.7934301 99.9952254,81.5624141 C100.109358,81.3228037 100.403285,81.2289534 100.634989,81.3458365 C100.867723,81.4692513 100.960886,81.7545837 100.844691,81.994194 C100.72712,82.2258976 100.442819,82.3173415 100.201833,82.1953018" id="Fill-85" fill="#FFFFFF"></path>
                <path d="M101.191902,80.1873186 C100.950573,80.0797173 100.844691,79.7936975 100.950573,79.5544309 C101.059893,79.3165393 101.337319,79.207563 101.576929,79.3165393 C101.82479,79.4241406 101.933766,79.7015661 101.82479,79.9411765 C101.71547,80.1873186 101.438044,80.2880443 101.191902,80.1873186" id="Fill-86" fill="#FFFFFF"></path>
                <path d="M102.072651,78.1184874 C101.82479,78.0260122 101.699656,77.7475554 101.800382,77.5014133 C101.894232,77.2628342 102.165814,77.1394194 102.410237,77.2322383 C102.658442,77.3247135 102.781856,77.602139 102.689725,77.8493125 C102.594843,78.087204 102.317418,78.2130252 102.072651,78.1184874" id="Fill-87" fill="#FFFFFF"></path>
                <path d="M102.842704,76.0121849 C102.594843,75.9258976 102.459396,75.665317 102.542246,75.4164248 C102.627158,75.1623759 102.889458,75.0320856 103.1356,75.1084034 C103.390336,75.1860963 103.522345,75.4645531 103.444309,75.7100076 C103.368335,75.9561497 103.097441,76.0967532 102.842704,76.0121849" id="Fill-88" fill="#FFFFFF"></path>
                <path d="M103.506875,73.8660046 C103.252483,73.7975936 103.105004,73.5421696 103.168602,73.2864018 C103.244576,73.0316654 103.497594,72.8852177 103.75508,72.9481283 C104.008098,73.0165393 104.155233,73.2805577 104.093354,73.5342628 C104.024943,73.7889992 103.761612,73.9354469 103.506875,73.8660046" id="Fill-89" fill="#FFFFFF"></path>
                <path d="M104.054507,71.6964477 C103.799771,71.6355997 103.631322,71.3877387 103.692513,71.1261268 C103.746486,70.8696715 103.999503,70.7087853 104.247364,70.7613827 C104.510695,70.815699 104.672269,71.071123 104.616578,71.3258594 C104.562949,71.5888464 104.309244,71.7438885 104.054507,71.6964477" id="Fill-90" fill="#FFFFFF"></path>
                <path d="M104.495569,69.4904507 C104.230519,69.450573 104.047632,69.2109626 104.093354,68.9486631 C104.140107,68.6856761 104.379374,68.507945 104.632391,68.5543545 C104.897441,68.5935447 105.073453,68.8414057 105.035982,69.0951108 C104.987853,69.3574102 104.749962,69.5351413 104.495569,69.4904507" id="Fill-91" fill="#FFFFFF"></path>
                <path d="M104.804966,67.2672651 C104.54026,67.244576 104.357372,67.0108098 104.386937,66.7495416 C104.409969,66.4855233 104.651986,66.294385 104.903972,66.3246371 C105.165584,66.3559206 105.36016,66.5869366 105.328877,66.8492361 C105.305157,67.110848 105.06589,67.2968296 104.804966,67.2672651" id="Fill-92" fill="#FFFFFF"></path>
                <path d="M105.004698,65.0358289 C104.741711,65.0207028 104.54026,64.7965623 104.557105,64.5332315 C104.572574,64.2702445 104.798434,64.0705118 105.057983,64.0856379 C105.323033,64.1017953 105.522765,64.3252483 105.514171,64.5882353 C105.500764,64.8498472 105.266998,65.0512987 105.004698,65.0358289" id="Fill-93" fill="#FFFFFF"></path>
                <path d="M105.097173,62.7899542 C104.82628,62.7899542 104.616578,62.5802521 104.616578,62.3186402 C104.616578,62.0556532 104.82628,61.8473262 105.087892,61.8473262 C105.36016,61.8473262 105.566769,62.0556532 105.566769,62.3186402 C105.566769,62.5802521 105.36016,62.7899542 105.097173,62.7899542" id="Fill-94" fill="#FFFFFF"></path>
                <path d="M105.057296,60.5492361 C104.797403,60.5671123 104.571543,60.3649733 104.556417,60.1033613 C104.539572,59.839343 104.741711,59.6100458 105.004011,59.6014515 C105.267341,59.5863254 105.499733,59.7867456 105.513484,60.0559206 C105.521734,60.3113445 105.322002,60.53411 105.057296,60.5492361" id="Fill-95" fill="#FFFFFF"></path>
                <path d="M104.903972,58.3109244 C104.650955,58.3422078 104.409969,58.1510695 104.386937,57.8880825 C104.357372,57.6247517 104.540947,57.3937357 104.804966,57.3710466 C105.066578,57.3411383 105.299312,57.5250573 105.328877,57.7890756 C105.36016,58.0496562 105.164897,58.2813598 104.903972,58.3109244" id="Fill-96" fill="#FFFFFF"></path>
                <path d="M104.632391,56.0805195 C104.379374,56.1262414 104.133231,55.9502292 104.093354,55.6879297 C104.05382,55.4239114 104.230519,55.1860199 104.495569,55.1471734 C104.749962,55.1014515 104.987853,55.2857143 105.036325,55.5404507 C105.082735,55.7962185 104.897441,56.0423606 104.632391,56.0805195" id="Fill-97" fill="#FFFFFF"></path>
                <path d="M104.25424,53.8648969 C103.999503,53.9267762 103.738923,53.76589 103.692513,53.5114973 C103.638885,53.2481665 103.799771,53.0020244 104.054507,52.9394576 C104.309244,52.8858289 104.56398,53.0484339 104.616578,53.3100458 C104.679144,53.5665011 104.510695,53.8202063 104.25424,53.8648969" id="Fill-98" fill="#FFFFFF"></path>
                <path d="M103.75508,51.6809015 C103.496906,51.7527502 103.238044,51.6038961 103.168602,51.3491597 C103.106035,51.0944232 103.25317,50.8331551 103.506875,50.7705882 C103.761612,50.7011459 104.023911,50.8482811 104.093354,51.1012987 C104.163827,51.357754 104.008098,51.6114591 103.75508,51.6809015" id="Fill-99" fill="#FFFFFF"></path>
                <path d="M103.1356,49.5292208 C102.889458,49.6062261 102.626127,49.474217 102.542246,49.2194805 C102.459396,48.9729947 102.595531,48.7041635 102.842704,48.6261268 C103.097441,48.5405271 103.368335,48.6794118 103.444309,48.9255539 C103.528877,49.1813216 103.390336,49.4419022 103.1356,49.5292208" id="Fill-100" fill="#FFFFFF"></path>
                <path d="M102.409549,47.3981665 C102.171658,47.4971734 101.894232,47.3823529 101.799351,47.1341482 C101.708938,46.8880061 101.823759,46.6095493 102.071963,46.5174179 C102.316387,46.4242552 102.594156,46.5480138 102.688694,46.7883117 C102.781856,47.0361727 102.65741,47.3043163 102.409549,47.3981665" id="Fill-101" fill="#FFFFFF"></path>
                <path d="M101.576929,45.320741 C101.337319,45.4290298 101.059893,45.320741 100.950573,45.082162 C100.844691,44.8428953 100.950573,44.5582506 101.191902,44.4561497 C101.438044,44.341673 101.71547,44.4561497 101.82479,44.6971352 C101.933766,44.9350267 101.82479,45.2124523 101.576929,45.320741" id="Fill-102" fill="#FFFFFF"></path>
                <path d="M100.634989,43.2838808 C100.403972,43.4066081 100.109358,43.3144767 99.9952254,43.0748663 C99.8793736,42.8438503 99.9725363,42.5588617 100.201833,42.4430099 C100.442819,42.3185638 100.72712,42.4117265 100.853285,42.6427426 C100.96673,42.8813216 100.876318,43.1673415 100.634989,43.2838808" id="Fill-103" fill="#FFFFFF"></path>
                <path d="M99.5857907,41.3006494 C99.3623377,41.4391902 99.0687548,41.3614973 98.9374332,41.1287624 C98.8071429,40.8994652 98.8834607,40.604851 99.1144767,40.4814362 C99.3410237,40.341864 99.6297937,40.4281513 99.7624905,40.6498854 C99.8944996,40.8826203 99.8185256,41.1686402 99.5857907,41.3006494" id="Fill-104" fill="#FFFFFF"></path>
                <path d="M98.4331169,39.3768908 C98.2113827,39.5243697 97.9195187,39.4635218 97.7789152,39.2400688 C97.6403743,39.0148969 97.7029412,38.7230328 97.9195187,38.5841482 C98.1429717,38.4359817 98.4331169,38.4985485 98.5836898,38.7230328 C98.7225745,38.9368602 98.6600076,39.2314744 98.4331169,39.3768908" id="Fill-105" fill="#FFFFFF"></path>
                <path d="M97.1859053,37.5112299 C96.9775783,37.6710848 96.6764324,37.6270817 96.5213904,37.4105042 C96.3666921,37.1939267 96.4141329,36.9010313 96.6307105,36.7453018 C96.8390374,36.5912911 97.1419022,36.6387319 97.2931627,36.8553094 C97.4482047,37.0636364 97.4024828,37.3623759 97.1859053,37.5112299" id="Fill-106" fill="#FFFFFF"></path>
                <path d="M95.8352177,35.7112299 C95.6337662,35.881398 95.3412147,35.8518335 95.1693277,35.650382 C95.0101604,35.449618 95.0390374,35.1391902 95.2470206,34.978304 C95.4484721,34.8177617 95.7413675,34.8473262 95.9115355,35.0477464 C96.0813598,35.2485103 96.0500764,35.5555004 95.8352177,35.7112299" id="Fill-107" fill="#FFFFFF"></path>
                <path d="M94.3992743,33.997861 C94.2071047,34.1676853 93.9049274,34.1601222 93.7282277,33.9662338 C93.5563407,33.7668449 93.5707792,33.4653552 93.7663866,33.2886555 C93.9644003,33.1184874 94.2621085,33.1336134 94.4374332,33.3264706 C94.6158518,33.5186402 94.5990069,33.8208174 94.3992743,33.997861" id="Fill-108" fill="#FFFFFF"></path>
                <path d="M92.8787624,32.3460275 C92.6865928,32.5395722 92.3912911,32.5395722 92.2077158,32.3535905 C92.0220779,32.1607334 92.0220779,31.8668067 92.2077158,31.6815126 C92.3912911,31.4972498 92.6917494,31.4972498 92.8787624,31.6815126 C93.0657754,31.8668067 93.0657754,32.1614209 92.8787624,32.3460275" id="Fill-109" fill="#FFFFFF"></path>
                <path d="M91.2657754,30.7880443 C91.0938885,30.9884645 90.7868984,31.002903 90.5930099,30.8262032 C90.4008403,30.6474408 90.384683,30.3480138 90.5634454,30.1534377 C90.7401451,29.9537051 91.0347594,29.9375477 91.2362108,30.1152788 C91.4273491,30.2936975 91.444194,30.592437 91.2657754,30.7880443" id="Fill-110" fill="#FFFFFF"></path>
                <path d="M89.5750955,29.3129106 C89.4135218,29.5212376 89.1103132,29.5508021 88.9040489,29.3806341 C88.7025974,29.2207792 88.6730328,28.9179144 88.841482,28.7188694 C89.0030558,28.5091673 89.3059206,28.4785714 89.5056532,28.641864 C89.7136364,28.8113445 89.7449198,29.1032086 89.5750955,29.3129106" id="Fill-111" fill="#FFFFFF"></path>
                <path d="M87.8063789,27.9302521 C87.6523682,28.1392666 87.3587853,28.1953018 87.1439267,28.0395722 C86.9355997,27.8769672 86.8874714,27.5844156 87.0449198,27.3754011 C87.1989305,27.1601986 87.49767,27.1137892 87.707372,27.2667685 C87.9215432,27.4207792 87.9679526,27.7153934 87.8063789,27.9302521" id="Fill-112" fill="#FFFFFF"></path>
                <path d="M85.9785332,26.6338808 C85.831398,26.8573338 85.5385027,26.928495 85.3195187,26.7792972 C85.0977846,26.6338808 85.0365928,26.3392666 85.1823529,26.1168449 C85.3195187,25.8933919 85.6172269,25.8325439 85.8382735,25.978304 C86.0624141,26.1244079 86.1249809,26.4190222 85.9785332,26.6338808" id="Fill-113" fill="#FFFFFF"></path>
                <path d="M84.0712758,25.4457983 C83.9485485,25.6692513 83.6532468,25.7531322 83.4229183,25.6142475 C83.1994652,25.4839572 83.1224599,25.1979374 83.253094,24.9662338 C83.3833843,24.7359053 83.6776547,24.6571811 83.9028266,24.7977846 C84.1321238,24.9205118 84.2101604,25.2130634 84.0712758,25.4457983" id="Fill-114" fill="#FFFFFF"></path>
                <path d="M82.1103896,24.350191 C81.9928189,24.5801757 81.7067991,24.6809015 81.4775019,24.5574866 C81.2464859,24.4406035 81.155042,24.1470206 81.2695187,23.9166921 C81.3853705,23.6856761 81.6772345,23.5918258 81.9110008,23.7087089 C82.1420168,23.8245607 82.2348358,24.1174561 82.1103896,24.350191" id="Fill-115" fill="#FFFFFF"></path>
                <path d="M80.1041253,23.3608098 C79.995149,23.5993888 79.7173797,23.7169595 79.4712376,23.6086707 C79.2385027,23.500382 79.1291826,23.2143621 79.2385027,22.9750955 C79.3409473,22.737204 79.6252483,22.6278839 79.8648587,22.737204 C80.1041253,22.8362108 80.2117265,23.1222307 80.1041253,23.3608098" id="Fill-116" fill="#FFFFFF"></path>
                <path d="M78.0352941,22.4800611 C77.9428189,22.7286096 77.6729565,22.8513369 77.4233766,22.7592055 C77.1789534,22.6584798 77.0527884,22.3886173 77.1542017,22.1421314 C77.2466769,21.8942704 77.5247899,21.7715432 77.7661192,21.8636746 C78.0105424,21.9578686 78.134301,22.2346066 78.0352941,22.4800611" id="Fill-117" fill="#FFFFFF"></path>
                <path d="M75.9341482,21.7089763 C75.8495798,21.9578686 75.5804049,22.0957219 75.333919,22.0187166 C75.0860581,21.931398 74.9475172,21.6625668 75.0234912,21.416081 C75.1097785,21.160657 75.3789534,21.0310542 75.6268144,21.107372 C75.8729565,21.1850649 76.0118411,21.4628342 75.9341482,21.7089763" id="Fill-118" fill="#FFFFFF"></path>
                <path d="M73.792437,21.0465241 C73.7195569,21.3002292 73.4648205,21.4559587 73.202521,21.3847976 C72.95466,21.3153552 72.8023682,21.0540871 72.8714668,20.7983193 C72.9391902,20.5435829 73.202521,20.3981665 73.450382,20.4600458 C73.7109626,20.5294882 73.8598167,20.7907563 73.792437,21.0465241" id="Fill-119" fill="#FFFFFF"></path>
                <path d="M71.6142857,20.4971734 C71.5599694,20.7508785 71.3035141,20.9220779 71.0487777,20.868793 C70.7940413,20.8137892 70.624217,20.5580214 70.6867838,20.3043163 C70.7349121,20.0420168 70.9937739,19.8804431 71.2485103,19.933728 C71.5032468,19.9887319 71.6665393,20.2417494 71.6142857,20.4971734" id="Fill-120" fill="#FFFFFF"></path>
                <path d="M69.4062261,20.0647059 C69.3749427,20.3297555 69.1270817,20.5057678 68.8640947,20.4600458 C68.6110772,20.4218869 68.4340336,20.1805577 68.479068,19.9192895 C68.5103514,19.6559587 68.7547746,19.4782277 69.0194805,19.5174179 C69.2821238,19.5638273 69.4519481,19.8034377 69.4062261,20.0647059" id="Fill-121" fill="#FFFFFF"></path>
                <path d="M67.1892284,19.7501528 C67.1682582,20.0124523 66.934492,20.196715 66.665317,20.174026 C66.4092055,20.1427426 66.2177235,19.9106952 66.2490069,19.6483957 C66.268602,19.3871276 66.5020244,19.1956455 66.7643239,19.2252101 C67.0276547,19.2568373 67.2129488,19.4857907 67.1892284,19.7501528" id="Fill-122" fill="#FFFFFF"></path>
                <path d="M64.9519481,19.54767 C64.9450726,19.8116883 64.7192131,20.0114209 64.4576012,19.9952636 C64.1946142,19.97945 63.9862872,19.7652788 64.0031322,19.5019481 C64.018602,19.2396486 64.2478992,19.0306341 64.512605,19.0457601 C64.7731856,19.0612299 64.9746371,19.2864018 64.9519481,19.54767" id="Fill-123" fill="#FFFFFF"></path>
                <path d="M40.3356761,61.3684492 C40.3356761,52.0294882 46.1708938,44.0642475 54.3987777,40.9053094 L52.0057678,34.6695951 C51.6671505,34.7998854 50.9562261,35.0927807 50.6255157,35.2406035 C36.2152024,41.6540489 29.7299083,58.5436593 36.144385,72.95466 L42.2185256,70.2529412 C41.0084416,67.5357525 40.3356761,64.5332315 40.3356761,61.3684492" id="Fill-124" fill="#39424C"></path>
                <path d="M42.2185256,70.2529412 L36.144385,72.95466 C39.7271963,80.9979374 45.9103132,86.3697479 54.3692131,88.7940413 L56.1987777,82.4256303 C49.9365928,80.6349121 44.8281131,76.1280367 42.2185256,70.2529412" id="Fill-125" fill="#55BDC1"></path>
                <path d="M80.1962567,73.9041635 C76.2346066,79.5705882 69.6671505,83.2675325 62.2406035,83.2675325 C60.141864,83.2675325 58.1135982,82.9729183 56.1977464,82.4256303 L54.3692131,88.7940413 C66.3480138,92.2290298 78.4997326,87.92945 85.6461039,77.7179908 L80.1962567,73.9041635" id="Fill-126" fill="#FFFFFF"></path>
                <path d="M62.2416348,32.7705882 L62.2416348,39.4624905 C74.3380061,39.4624905 84.1407181,49.2652024 84.1407181,61.3684492 C84.1407181,66.0303667 82.6810542,70.3526356 80.197288,73.9034759 L85.6461039,77.7179908 C89.2213522,72.6136364 90.8095875,67.5660046 90.8095875,61.3388846 C90.8095875,45.5603514 78.0181054,32.7705882 62.2416348,32.7705882" id="Fill-127" fill="#E36642"></path>
                <path d="M62.2416348,39.4635218 L62.2416348,32.7716196 C58.5842246,32.7716196 55.418411,33.357754 52.0057678,34.6702827 L54.3987777,40.9059969 C56.8402597,39.9719633 59.4776929,39.4635218 62.2416348,39.4635218" id="Fill-128" fill="#F3B03E"></path>
                <path d="M54.6060733,13.9510313 C58.0249045,13.9510313 60.7960657,16.7221925 60.7960657,20.1410237 C60.7960657,23.5595111 58.0249045,26.331016 54.6060733,26.331016 C51.1875859,26.331016 48.416081,23.5595111 48.416081,20.1410237 C48.416081,16.7221925 51.1875859,13.9510313 54.6060733,13.9510313" id="Fill-129" fill="#F3B03E"></path>
                <path d="M105.892666,41.5010695 C105.892666,44.9119939 103.121161,47.6841864 99.7033613,47.6841864 C96.2838426,47.6841864 93.5123377,44.9130252 93.5123377,41.5010695 C93.5123377,38.0746753 96.2838426,35.3117647 99.7033613,35.3117647 C103.120474,35.3110772 105.892666,38.0746753 105.892666,41.5010695" id="Fill-130" fill="#E36642"></path>
                <path d="M76.8699007,96.4227273 C80.2887319,96.4227273 83.059893,99.1942322 83.059893,102.61272 C83.059893,106.031551 80.2887319,108.802712 76.8699007,108.802712 C73.4514133,108.802712 70.6799083,106.031551 70.6799083,102.61272 C70.6799083,99.1942322 73.4514133,96.4227273 76.8699007,96.4227273" id="Fill-131" fill="#FFFFFF"></path>
                <path d="M39.8581742,94.1820092 C39.8581742,97.6015279 37.0928571,100.373033 33.6674943,100.373033 C30.2562261,100.373033 27.4781895,97.6015279 27.4781895,94.1820092 C27.4781895,90.7614591 30.2562261,87.9920168 33.6674943,87.9920168 C37.0928571,87.9909855 39.8581742,90.7614591 39.8581742,94.1820092" id="Fill-132" fill="#55BDC1"></path>
                <path d="M29.1908709,45.0660046 C29.1908709,48.4872422 26.4111154,51.2577158 23.000191,51.2577158 C19.5789534,51.2577158 16.8091673,48.4872422 16.8091673,45.0660046 C16.8091673,41.6550802 19.5789534,38.8770435 23.000191,38.8770435 C26.4111154,38.8760122 29.1908709,41.6540489 29.1908709,45.0660046" id="Fill-133" fill="#39424C"></path>
            </g>
        </g>
    </g>
</svg>